
        <svg xmlns="http://www.w3.org/2000/svg" xmlns:xlink="http://www.w3.org/1999/xlink" version="1.1" width="3192" 
        height="3192" viewBox="0 0 3192 3192">
			
			<g transform="scale(9.6) translate(10, 10)">
				<defs id="SvgjsDefs18394"><linearGradient id="SvgjsLinearGradient18403"><stop id="SvgjsStop18404" stop-color="#8f5e25" offset="0"></stop><stop id="SvgjsStop18405" stop-color="#fbf4a1" offset="0.5"></stop><stop id="SvgjsStop18406" stop-color="#8f5e25" offset="1"></stop></linearGradient><linearGradient id="SvgjsLinearGradient18407"><stop id="SvgjsStop18408" stop-color="#8f5e25" offset="0"></stop><stop id="SvgjsStop18409" stop-color="#fbf4a1" offset="0.5"></stop><stop id="SvgjsStop18410" stop-color="#8f5e25" offset="1"></stop></linearGradient><linearGradient id="SvgjsLinearGradient18411"><stop id="SvgjsStop18412" stop-color="#8f5e25" offset="0"></stop><stop id="SvgjsStop18413" stop-color="#fbf4a1" offset="0.5"></stop><stop id="SvgjsStop18414" stop-color="#8f5e25" offset="1"></stop></linearGradient></defs><g id="SvgjsG18395" featureKey="rootContainer" transform="matrix(6.25,0,0,6.25,0.31249597668647766,0)" fill="#3b3a3a"><path xmlns="http://www.w3.org/2000/svg" d="M24.95 0a25 25 0 1 0 25 25 25 25 0 0 0-25-25zm0 46.91a22 22 0 1 1 22-22 22 22 0 0 1-22 21.99z"></path><path xmlns="http://www.w3.org/2000/svg" d="M24.95 3.65a21.3 21.3 0 1 0 21.3 21.3 21.33 21.33 0 0 0-21.3-21.3z"></path></g><g id="SvgjsG18396" featureKey="symbolFeature-0" transform="matrix(-0.9036110469419106,0,0,0.9036110469419106,201.892406205336,66.11782269991484)" fill="url(#SvgjsLinearGradient18403)"><path xmlns="http://www.w3.org/2000/svg" fill="url(#SvgjsLinearGradient18403)" d="M15.334,76.069c-1.558,0-2.976-1.141-3.284-2.685L8,54l2.322,0.176l4.239,18.706  c0.069,0.347,0.471,0.624,0.819,0.625l71.495-5.076c0.393-0.028,0.833-0.438,0.888-0.829l2.521-17.834l2.535,0.357l-2.52,17.837  c-0.224,1.581-1.647,2.91-3.241,3.023l-71.496,5.076C15.486,76.067,15.41,76.069,15.334,76.069z"></path><path xmlns="http://www.w3.org/2000/svg" fill="url(#SvgjsLinearGradient18403)" d="M11.955,62.536c1.85-1.523,4.635-1.037,6.199,0.577c2.118-2.567,6.061-3.26,9.12-2.718  c0.88,0.156,1.085,0.354,2.008,0.379c1.732,0.051,3.359-0.126,5.175,0.065c3.116,0.328,6.28-1.047,9.56-1.077  c2.838-0.026,6.393-0.301,9.129,0.577c0.83,0.266,1.425,1.253,2.337,1.154c0.572-0.062,1.4-1.314,1.835-1.623  c1.345-0.954,2.169-1.118,3.771-1.179c2.252-0.089,3.916,1.174,5.895,1.293c1.772,0.108,0.54,0.094,2.101-1.141  c3.325-2.632,8.107-0.71,11.995-0.993c2.994-0.218,5.868-1.827,8.951-1.472c-0.651,2.645-1.342,5.032-1.5,7.826  c-2.72,0.928-5.968-0.118-8.715-0.389c-1.622-0.16-2.782-0.561-4.055,0.151c-0.81,0.45-1.094,1.517-2.13,1.991  c-1.627,0.747-2.743,0.295-4.229-0.39c-2.435-1.121-2.513-1.217-4.995-0.26c-2.766,1.065-5.343,1.286-8.288,1.28  c-4.657-0.011-9.251-1.331-13.825-1.249c-0.47,1.551-2.07,2.367-3.611,2.599c-2.781,0.422-3.667-1.192-5.378-2.873  c-2.57,2.15-7.392,1.781-10.723,1.951c-2.327,0.117-4.136,0.48-6.387,1.019c-0.57,0.136-1.119,0.331-1.679,0.426  c-0.704,0.119-1.321,0.32-1.068,0.048"></path><path xmlns="http://www.w3.org/2000/svg" fill="url(#SvgjsLinearGradient18403)" d="M91.793,48.698L73.786,35.903c-0.253,0.87-0.77,2.115-1.289,2.375c1.091,0,2.061,0.725,1.454,2.786  c-0.606,2.061-6.662,6.421-13.084,5.453c-6.425-0.969-11.634-2.422-12.118-7.511c-0.243-2.542,0.181-4.058,0.787-5.058L9.245,53.483  c-1.797,0.87-1.634,1.504,0.359,1.41l81.523-3.92C93.119,50.878,93.42,49.853,91.793,48.698z"></path><path xmlns="http://www.w3.org/2000/svg" fill="url(#SvgjsLinearGradient18403)" d="M72.982,37.187c0,0,0.103,0.128,0.296,0.37c0.186,0.235,0.482,0.615,0.719,1.166  c0.241,0.541,0.493,1.293,0.372,2.206c-0.102,0.908-0.603,1.895-1.378,2.671c-0.768,0.787-1.746,1.426-2.82,1.939  c-0.514,0.24-1.042,0.485-1.583,0.736c-0.6,0.249-1.227,0.458-1.844,0.631c-1.25,0.342-2.567,0.609-3.921,0.694  c-1.354,0.095-2.733,0.075-4.108-0.071c-1.374-0.174-2.734-0.476-4.04-0.933c-1.311-0.443-2.541-1.107-3.627-1.93  c-1.09-0.818-1.982-1.891-2.523-3.067c-0.561-1.172-0.703-2.424-0.604-3.5c0.088-1.086,0.438-1.996,0.771-2.758  c0.355-0.756,0.737-1.363,1.085-1.834c0.312-0.493,0.655-0.811,0.844-1.053c0.202-0.233,0.31-0.358,0.31-0.358  s-0.068,0.15-0.192,0.434c-0.119,0.286-0.324,0.685-0.514,1.22c-0.216,0.522-0.417,1.176-0.607,1.912  c-0.152,0.746-0.286,1.586-0.225,2.464c0.071,0.877,0.331,1.769,0.825,2.582c0.498,0.812,1.251,1.521,2.146,2.127  c0.9,0.609,1.98,1.041,3.101,1.418c1.129,0.367,2.334,0.604,3.551,0.733c1.218,0.158,2.454,0.204,3.665,0.148  c1.208-0.066,2.4-0.17,3.525-0.412c0.574-0.113,1.092-0.271,1.606-0.4c0.553-0.184,1.095-0.364,1.621-0.54  c0.986-0.358,1.886-0.764,2.587-1.278c0.688-0.522,1.174-1.129,1.396-1.781c0.223-0.651,0.197-1.314,0.099-1.85  c-0.099-0.54-0.232-0.959-0.354-1.249C73.043,37.34,72.982,37.187,72.982,37.187z"></path><path xmlns="http://www.w3.org/2000/svg" fill="url(#SvgjsLinearGradient18403)" d="M64.5,36.944c-0.702,0.104-1.392,0.266-2.109,0.306c-0.717,0.074-1.436,0.091-2.155,0.091  c-0.719-0.019-1.443-0.061-2.166-0.153l-1.085-0.159l-1.074-0.263c-0.363-0.075-0.712-0.214-1.067-0.34  c-0.354-0.125-0.711-0.247-1.05-0.437c-0.701-0.311-1.354-0.774-1.967-1.306c-0.277-0.308-0.584-0.592-0.829-0.938  c-0.21-0.374-0.46-0.738-0.619-1.142c-0.115-0.419-0.263-0.849-0.323-1.279c-0.014-0.432-0.01-0.868-0.002-1.303  c0.167-0.813,0.34-1.646,0.709-2.34c0.289-0.764,0.742-1.37,1.148-2.028l0.156-0.243c0.043-0.062,0.011-0.032,0.117-0.169  l0.084-0.104l0.339-0.406c0.187-0.255,0.562-0.586,0.863-0.876c0.632-0.556,1.288-0.993,1.974-1.364  c1.355-0.741,2.766-1.212,3.682-1.792c0.445-0.298,0.682-0.596,0.839-1.002c0.181-0.388,0.173-0.97,0.16-1.546l-0.061-2.788  l2.062,1.719c1.462,1.22,2.833,2.549,4.104,4.002c1.235,1.475,2.412,3.084,3.017,5.105c0.275,1.002,0.344,2.189-0.128,3.242  c-0.218,0.522-0.56,0.975-0.945,1.34c-0.396,0.359-0.824,0.649-1.271,0.875c-0.889,0.462-1.819,0.73-2.754,0.891  c-0.928,0.19-1.869,0.238-2.798,0.284c0.9-0.246,1.789-0.51,2.642-0.84c0.852-0.322,1.673-0.717,2.366-1.219  c0.352-0.248,0.654-0.537,0.904-0.844c0.239-0.312,0.436-0.637,0.528-0.99c0.213-0.692,0.092-1.458-0.21-2.203  c-0.579-1.514-1.765-2.889-2.979-4.162c-1.23-1.285-2.613-2.451-4.024-3.568l1.999-1.068c0.038,0.822,0.087,1.692-0.266,2.627  c-0.309,0.924-1.025,1.756-1.757,2.238c-1.464,0.953-2.8,1.296-3.92,1.91c-0.561,0.289-1.087,0.635-1.521,1.005  c-0.201,0.202-0.39,0.305-0.633,0.614l-0.346,0.4l-0.088,0.099c0.054-0.067-0.025,0.038-0.03,0.048l-0.139,0.197  c-0.36,0.526-0.79,1.035-1.019,1.595c-0.336,0.544-0.449,1.102-0.619,1.658c-0.007,0.271-0.017,0.539-0.045,0.812  c0.015,0.266,0.095,0.515,0.124,0.784c0.075,0.256,0.225,0.489,0.322,0.747c0.14,0.241,0.348,0.454,0.514,0.691  c0.415,0.426,0.893,0.826,1.447,1.163c0.258,0.193,0.556,0.333,0.853,0.479c0.296,0.147,0.586,0.308,0.907,0.414  c0.622,0.257,1.269,0.459,1.931,0.648c0.659,0.187,1.338,0.33,2.019,0.452c0.688,0.116,1.376,0.233,2.071,0.284  C63.077,36.891,63.794,36.898,64.5,36.944z"></path><path xmlns="http://www.w3.org/2000/svg" fill="url(#SvgjsLinearGradient18403)" d="M67.649,30.401c0,0,0.102-0.063,0.29-0.183c0.175-0.144,0.477-0.257,0.953-0.349  c0.442-0.042,0.996-0.056,1.606,0.096c0.611,0.135,1.273,0.404,1.947,0.819c0.635,0.453,1.346,1.003,1.825,1.857  c0.54,0.798,0.839,1.918,0.714,3.037c-0.049,0.277-0.098,0.557-0.146,0.837c-0.064,0.275-0.197,0.516-0.3,0.778  c-0.192,0.547-0.516,0.974-0.846,1.409c-0.308,0.47-0.706,0.794-1.088,1.161c-0.377,0.383-0.795,0.673-1.216,0.957l-0.634,0.427  l-0.159,0.106l-0.079,0.053l-0.02,0.013l-0.107,0.059l-0.039,0.02l-0.314,0.152c-0.434,0.201-0.808,0.408-1.292,0.581  c-0.506,0.167-1.013,0.317-1.515,0.452c-0.491,0.11-0.96,0.156-1.428,0.234c-0.929,0.159-1.837,0.109-2.68,0.099  c-0.845-0.071-1.638-0.122-2.352-0.303c-0.718-0.131-1.363-0.296-1.919-0.506c-0.561-0.182-1.04-0.351-1.417-0.548  c-0.762-0.367-1.175-0.596-1.175-0.596s0.487,0.025,1.302,0.103c0.401,0.061,0.905,0.046,1.466,0.077  c0.559,0.042,1.19,0.019,1.871,0.005c0.68,0.016,1.41-0.105,2.172-0.143c0.382-0.024,0.767-0.123,1.158-0.182  c0.392-0.07,0.796-0.106,1.185-0.228c0.389-0.105,0.808-0.186,1.186-0.311c0.355-0.147,0.718-0.28,1.086-0.4  c0.378-0.142,0.809-0.415,1.22-0.606l0.311-0.158l0.039-0.02c-0.035,0.02,0.094-0.051-0.078,0.043l0.01-0.005l0.016-0.012  l0.065-0.046l0.13-0.092l0.523-0.365c0.361-0.232,0.717-0.467,0.995-0.753c0.288-0.278,0.648-0.513,0.847-0.823  c0.236-0.292,0.503-0.569,0.631-0.878c0.074-0.151,0.191-0.296,0.24-0.449l0.125-0.46c0.106-0.606,0.104-1.245-0.174-1.836  c-0.221-0.604-0.643-1.125-1.05-1.595c-0.456-0.421-0.915-0.797-1.374-1.051c-0.461-0.254-0.898-0.409-1.27-0.503  c-0.343-0.044-0.684-0.106-0.903-0.029C67.767,30.382,67.649,30.401,67.649,30.401z"></path></g><g id="SvgjsG18397" featureKey="nameFeature-0" transform="matrix(1.1823125778567154,0,0,1.1823125778567154,53.87183741623497,144.0281418482835)" fill="url(#SvgjsLinearGradient18407)"><path d="M10.36 14.559999999999999 l0 21.08 l6.76 0 q2.8 0 5.04 -1.44 q2.12 -1.4 3.32 -3.76 t1.2 -5.16 q0 -2.92 -1.14 -5.36 t-3.26 -3.88 q-2.28 -1.48 -5.24 -1.48 l-6.68 0 z M3.72 14.559999999999999 l-1.92 -4.4 l15.2 0 q3.96 0 7.24 2.04 q3.16 1.96 5 5.36 t1.84 7.4 q0 3 -1.18 5.94 t-3.26 5.14 q-2 2.16 -4.28 3.08 q-2.2 0.88 -5.24 0.88 l-11.04 0 l0 -25.44 l-2.36 0 z M45.456 28.04 l0 7.6 l18.4 0 l0 4.36 l-22.76 0 l0 -29.84 l21 0 l0 4.4 l-16.64 0 l0 9.04 q1.24 -0.72 2.76 -0.96 q1.12 -0.2 2.88 -0.2 l6.52 0 l0 4.44 l-6.52 0 q-1.64 0 -2.88 0.2 q-1.52 0.28 -2.76 0.96 z M94.99199999999999 40 l-20.92 0 l0 -29.84 l4.36 0 l0 25.48 l16.56 0 l0 4.36 z M113.288 23.28 q2.68 -2.8 4.84 -6.24 t3.44 -6.88 l5 0 q-2.04 4.76 -4.96 9.12 q-2.64 3.96 -6.16 7.8 l0 12.92 l-4.32 0 l0 -12.92 q-3.52 -3.84 -6.16 -7.8 q-2.92 -4.36 -4.96 -9.12 l5 0 q1.28 3.44 3.44 6.88 t4.84 6.24 z M137.744 9.64 l-0.92 9.64 l-2.76 0 l-0.88 -9.64 l4.56 0 z M170.95999999999998 30.92 q0 2.92 -1.76 5.2 q-1.72 2.16 -4.74 3.36 t-6.82 1.2 q-3.48 0 -6.76 -1.62 t-5.52 -4.5 l3.12 -2.92 q3.88 4.68 9.16 4.68 q2.32 0 4.24 -0.56 q2.12 -0.64 3.28 -1.8 q1.32 -1.28 1.32 -3.04 q0 -2.12 -1.32 -3.2 q-1.12 -0.92 -3.32 -1.2 q-1.28 -0.16 -4.2 -0.16 q-5.36 0 -8.18 -1.96 t-2.82 -5.76 q0 -2.4 1.42 -4.56 t3.9 -3.44 q2.56 -1.36 5.68 -1.36 q3.52 0 6.36 1.08 q3.04 1.16 5.64 3.64 l-2.72 3.2 q-2.44 -1.96 -4.44 -2.74 t-4.84 -0.78 q-1.64 0 -3.06 0.68 t-2.26 1.82 t-0.84 2.42 q0 3.44 6.36 3.44 q5.08 0 8.04 1.04 q2.8 1 4 3.04 q1.08 1.8 1.08 4.8 z"></path></g><g id="SvgjsG18398" featureKey="nameFeature-1" transform="matrix(0.9908838863888484,0,0,0.9908838863888484,54.01823175473205,192.80459968886706)" fill="url(#SvgjsLinearGradient18411)"><path d="M27.6 30.92 q0 2.92 -1.76 5.2 q-1.72 2.16 -4.74 3.36 t-6.82 1.2 q-3.48 0 -6.76 -1.62 t-5.52 -4.5 l3.12 -2.92 q3.88 4.68 9.16 4.68 q2.32 0 4.24 -0.56 q2.12 -0.64 3.28 -1.8 q1.32 -1.28 1.32 -3.04 q0 -2.12 -1.32 -3.2 q-1.12 -0.92 -3.32 -1.2 q-1.28 -0.16 -4.2 -0.16 q-5.36 0 -8.18 -1.96 t-2.82 -5.76 q0 -2.4 1.42 -4.56 t3.9 -3.44 q2.56 -1.36 5.68 -1.36 q3.52 0 6.36 1.08 q3.04 1.16 5.64 3.64 l-2.72 3.2 q-2.44 -1.96 -4.44 -2.74 t-4.84 -0.78 q-1.64 0 -3.06 0.68 t-2.26 1.82 t-0.84 2.42 q0 3.44 6.36 3.44 q5.08 0 8.04 1.04 q2.8 1 4 3.04 q1.08 1.8 1.08 4.8 z M70.05600000000001 10.16 l4.6 0 l-9.52 29.84 l-4.72 0 l-5.76 -17.64 l-5.6 17.64 l-4.72 0 l-10.12 -29.84 l4.48 0 l7.92 22.32 l5.6 -17.6 l-1.52 -4.72 l4.48 0 l7.52 22.32 z M88.03200000000001 28.04 l0 7.6 l18.4 0 l0 4.36 l-22.76 0 l0 -29.84 l21 0 l0 4.4 l-16.64 0 l0 9.04 q1.24 -0.72 2.76 -0.96 q1.12 -0.2 2.88 -0.2 l6.52 0 l0 4.44 l-6.52 0 q-1.64 0 -2.88 0.2 q-1.52 0.28 -2.76 0.96 z M121.00800000000001 28.04 l0 7.6 l18.4 0 l0 4.36 l-22.76 0 l0 -29.84 l21 0 l0 4.4 l-16.64 0 l0 9.04 q1.24 -0.72 2.76 -0.96 q1.12 -0.2 2.88 -0.2 l6.52 0 l0 4.44 l-6.52 0 q-1.64 0 -2.88 0.2 q-1.52 0.28 -2.76 0.96 z M171.82399999999998 14.559999999999999 l-10.52 0 l0 25.44 l-4.24 0 l0 -25.44 l-10.64 0 l0 -4.4 l25.4 0 l0 4.4 z M203.83999999999997 30.92 q0 2.92 -1.76 5.2 q-1.72 2.16 -4.74 3.36 t-6.82 1.2 q-3.48 0 -6.76 -1.62 t-5.52 -4.5 l3.12 -2.92 q3.88 4.68 9.16 4.68 q2.32 0 4.24 -0.56 q2.12 -0.64 3.28 -1.8 q1.32 -1.28 1.32 -3.04 q0 -2.12 -1.32 -3.2 q-1.12 -0.92 -3.32 -1.2 q-1.28 -0.16 -4.2 -0.16 q-5.36 0 -8.18 -1.96 t-2.82 -5.76 q0 -2.4 1.42 -4.56 t3.9 -3.44 q2.56 -1.36 5.68 -1.36 q3.52 0 6.36 1.08 q3.04 1.16 5.64 3.64 l-2.72 3.2 q-2.44 -1.96 -4.44 -2.74 t-4.84 -0.78 q-1.64 0 -3.06 0.68 t-2.26 1.82 t-0.84 2.42 q0 3.44 6.36 3.44 q5.08 0 8.04 1.04 q2.8 1 4 3.04 q1.08 1.8 1.08 4.8 z"></path></g>
			</g>
		</svg>
	